<!--
  - Copyright (c) 2026 MOHAMMAD AZIM ANSARI. All Rights Reserved.
  -
  - Permission is hereby granted, free of charge, to any person obtaining a
  - copy of this software and associated documentation files (the
  - "Software"), to use the Software for personal, educational, or other
  - non-commercial purposes, subject to the following conditions:
  -
  -    The Software must not be used for any commercial purpose, including
  -     but not limited to selling, licensing, or incorporating it into a
  -     product or service for which payment or compensation is received.
  -    The Software may be redistributed only in its original, unmodified,
  -     and complete form, provided that this copyright and license notice
  -     is included.
  -    The Software must not be modified, sublicensed, or sold without
  -     prior written permission from the copyright holder.
  -    The Software is provided solely in binary or compiled form unless
  -     otherwise explicitly stated.
  -    All copyright and proprietary notices must be retained.
  -
  - THE SOFTWARE IS PROVIDED "AS IS", WITHOUT WARRANTY OF ANY KIND, EXPRESS
  - OR IMPLIED, INCLUDING BUT NOT LIMITED TO THE WARRANTIES OF
  - MERCHANTABILITY, FITNESS FOR A PARTICULAR PURPOSE AND NONINFRINGEMENT.
  - IN NO EVENT SHALL THE AUTHOR BE LIABLE FOR ANY CLAIM, DAMAGES OR OTHER
  - LIABILITY, WHETHER IN AN ACTION OF CONTRACT, TORT OR OTHERWISE, ARISING
  - FROM, OUT OF OR IN CONNECTION WITH THE SOFTWARE OR THE USE OR OTHER
  - DEALINGS IN THE SOFTWARE.
  -->

<svg xmlns="http://www.w3.org/2000/svg" width="642" height="638" viewBox="0 0 642 638">
    <g>
        <path d="M 319.00 580.39 C250.34,574.17 196.97,551.50 153.94,510.27 C121.59,479.26 97.32,436.66 86.01,391.00 C75.45,348.42 75.40,301.09 85.85,259.47 C109.84,163.94 180.60,96.07 277.54,75.64 C298.87,71.15 313.01,69.67 335.00,69.62 C356.91,69.57 368.20,70.81 389.89,75.63 C435.42,85.75 479.46,110.19 513.00,143.95 C551.29,182.48 575.21,228.80 584.67,282.74 C587.21,297.20 587.44,300.64 587.46,324.50 C587.49,351.44 586.71,359.45 581.96,381.06 C571.68,427.79 547.54,471.55 513.02,506.00 C473.40,545.55 424.50,569.98 368.00,578.47 C357.68,580.02 327.83,581.19 319.00,580.39 ZM 346.95 504.97 C410.85,499.31 466.04,461.70 494.12,404.66 C508.39,375.69 514.92,342.11 512.05,312.50 C506.25,252.74 479.45,205.62 434.00,175.26 C416.80,163.78 393.32,154.23 370.02,149.24 C358.37,146.74 355.77,146.56 332.50,146.53 C310.03,146.50 306.33,146.74 296.00,148.87 C216.90,165.16 164.08,222.36 153.40,303.25 C151.23,319.73 151.96,346.31 154.98,360.50 C159.38,381.17 168.89,404.80 179.52,421.50 C209.64,468.80 260.68,499.97 316.04,504.89 C329.65,506.09 334.12,506.11 346.95,504.97 ZM 107.75 575.51 C84.83,569.21 73.34,541.74 85.04,521.25 C87.57,516.82 103.43,500.01 105.09,500.00 C105.42,500.00 108.78,503.71 112.58,508.25 C123.38,521.17 133.42,531.30 146.25,542.26 L 158.09 552.36 L 150.30 560.22 C140.86,569.74 135.38,573.41 127.53,575.45 C120.48,577.29 114.26,577.31 107.75,575.51 ZM 537.75 575.98 C530.39,574.12 523.79,569.82 515.37,561.40 C510.69,556.72 507.01,552.54 507.18,552.10 C507.36,551.67 511.55,547.92 516.50,543.78 C526.94,535.04 547.28,514.35 554.48,505.15 L 559.45 498.80 L 568.53 508.15 C580.94,520.92 583.50,526.19 583.50,539.00 C583.50,547.55 583.19,549.15 580.41,555.00 C574.29,567.85 562.62,575.80 548.79,576.54 C544.78,576.75 539.81,576.50 537.75,575.98 ZM 96.07 142.10 C86.01,131.49 83.55,127.56 81.33,118.54 C74.70,91.68 101.22,66.74 128.07,74.59 C135.62,76.80 141.22,80.63 150.30,89.78 L 158.09 97.64 L 146.25 107.74 C133.37,118.73 123.56,128.66 112.14,142.25 C108.09,147.06 104.72,151.00 104.64,150.99 C104.56,150.99 100.71,146.98 96.07,142.10 ZM 551.83 141.81 C543.51,131.69 524.37,112.60 514.00,104.07 C510.42,101.12 507.37,98.38 507.20,97.96 C507.04,97.54 510.86,93.26 515.70,88.44 C527.64,76.54 533.89,73.51 546.50,73.51 C554.49,73.51 556.23,73.86 562.00,76.60 C570.26,80.52 576.47,86.74 580.41,95.00 C583.19,100.85 583.50,102.45 583.50,111.00 C583.50,123.80 580.94,129.08 568.56,141.82 L 559.50 151.14 L 551.83 141.81 ZM 245.42 447.82 C234.15,440.02 216.22,422.04 208.76,411.08 L 203.03 402.65 L 212.79 392.58 C223.56,381.44 228.47,374.58 233.60,363.49 C239.27,351.23 241.39,340.63 241.32,325.00 C241.25,309.16 239.32,300.39 232.95,287.07 C227.65,275.98 222.03,268.34 211.58,258.02 C206.86,253.36 203.00,249.08 203.00,248.52 C202.99,247.96 205.57,243.68 208.72,239.00 C216.10,228.04 235.00,209.20 246.25,201.57 L 255.00 195.64 L 263.75 204.16 C274.50,214.64 283.06,220.99 292.39,225.41 C319.44,238.22 350.29,237.46 375.99,223.34 C384.73,218.54 388.83,215.31 399.71,204.65 C410.35,194.22 408.51,194.27 421.54,204.03 C435.01,214.11 447.23,226.87 456.88,240.90 L 461.96 248.30 L 451.85 258.80 C429.99,281.50 422.15,301.02 423.29,329.91 C423.90,345.21 425.36,351.63 430.96,363.62 C436.26,374.99 441.90,382.91 452.18,393.43 C462.40,403.90 462.37,402.01 452.49,415.16 C444.39,425.96 432.99,437.37 422.33,445.37 C408.43,455.81 410.52,455.85 399.24,444.87 C388.59,434.51 382.28,429.65 374.27,425.62 C351.80,414.32 327.26,412.40 303.70,420.10 C288.62,425.03 275.52,433.67 261.53,447.92 C258.25,451.26 255.29,454.00 254.95,454.00 C254.62,454.00 250.33,451.22 245.42,447.82 ZM 345.14 368.04 C357.47,364.23 366.75,356.21 372.71,344.22 C383.36,322.82 373.86,294.85 352.57,284.88 C334.69,276.52 314.69,279.53 300.93,292.65 C286.45,306.46 283.13,328.03 292.67,346.19 C302.60,365.09 324.79,374.33 345.14,368.04 ZM 324.67 337.95 C320.65,335.77 317.06,329.73 317.02,325.07 C316.98,320.69 320.76,314.51 324.89,312.18 C337.93,304.86 352.06,318.56 345.25,331.93 C342.80,336.74 338.97,339.22 333.32,339.65 C329.80,339.93 327.47,339.47 324.67,337.95 Z"
              fill="rgb(255, 255, 255)"/>
    </g>
</svg>